HIERARCHY
ROOT hip
{
  OFFSET 5.70873 43.8894 -1.52928
  CHANNELS 6 Xposition Yposition Zposition Zrotation Xrotation Yrotation
  JOINT abdomen
  {
    OFFSET 0 5.99393 0.287273
    CHANNELS 6 Xposition Yposition Zposition Zrotation Xrotation Yrotation
    JOINT chest
    {
      OFFSET 0 6.65865 -0.856112
      CHANNELS 6 Xposition Yposition Zposition Zrotation Xrotation Yrotation
      JOINT neck
      {
        OFFSET 0 8.65624 -1.42685
        CHANNELS 6 Xposition Yposition Zposition Zrotation Xrotation Yrotation
        JOINT head
        {
          OFFSET 0 3.80999 -0.190247
          CHANNELS 6 Xposition Yposition Zposition Zrotation Xrotation Yrotation
          End Site
          {
            OFFSET 0 0 0
          }
        }
      }
      JOINT rCollar
      {
        OFFSET -1.4963 7.5744 -1.52136
        CHANNELS 6 Xposition Yposition Zposition Zrotation Xrotation Yrotation
        JOINT rShldr
        {
          OFFSET -5.47506 -0.905672 0.485692
          CHANNELS 6 Xposition Yposition Zposition Zrotation Xrotation Yrotation
          JOINT rForeArm
          {
            OFFSET -11.3069 -0.201091 0.618544
            CHANNELS 6 Xposition Yposition Zposition Zrotation Xrotation Yrotation
            JOINT rHand
            {
              OFFSET -9.61414 -0.254739 3.48553
              CHANNELS 6 Xposition Yposition Zposition Zrotation Xrotation Yrotation
              JOINT rThumb1
              {
                OFFSET 0.176263 -0.07068 1.26622
                CHANNELS 6 Xposition Yposition Zposition Zrotation Xrotation Yrotation
                JOINT rThumb2
                {
                  OFFSET -1.04683 -0.546484 1.82182
                  CHANNELS 6 Xposition Yposition Zposition Zrotation Xrotation Yrotation
                  JOINT rThumb3
                  {
                    OFFSET -0.993472 -0.621916 0.655506
                    CHANNELS 6 Xposition Yposition Zposition Zrotation Xrotation Yrotation
                    End Site
                    {
                      OFFSET -0.996134 -0.66263 0.644615
                    }
                  }
                }
              }
              JOINT rIndex1
              {
                OFFSET -2.64253 0.566363 2.4162
                CHANNELS 6 Xposition Yposition Zposition Zrotation Xrotation Yrotation
                JOINT rIndex2
                {
                  OFFSET -1.39394 -0.635138 0.899356
                  CHANNELS 6 Xposition Yposition Zposition Zrotation Xrotation Yrotation
                  JOINT rIndex3
                  {
                    OFFSET -0.622395 -0.856016 0.402182
                    CHANNELS 6 Xposition Yposition Zposition Zrotation Xrotation Yrotation
                    End Site
                    {
                      OFFSET -0.472476 -0.801802 0.34216
                    }
                  }
                }
              }
              JOINT rMid1
              {
                OFFSET -3.20814 0.514427 1.52547
                CHANNELS 6 Xposition Yposition Zposition Zrotation Xrotation Yrotation
                JOINT rMid2
                {
                  OFFSET -1.56545 -0.497974 0.68919
                  CHANNELS 6 Xposition Yposition Zposition Zrotation Xrotation Yrotation
                  JOINT rMid3
                  {
                    OFFSET -0.679943 -1.17582 0.444246
                    CHANNELS 6 Xposition Yposition Zposition Zrotation Xrotation Yrotation
                    End Site
                    {
                      OFFSET -0.343874 -0.941341 0.267611
                    }
                  }
                }
              }
              JOINT rRing1
              {
                OFFSET -3.47877 0.200518 0.597719
                CHANNELS 6 Xposition Yposition Zposition Zrotation Xrotation Yrotation
                JOINT rRing2
                {
                  OFFSET -1.28208 -0.53155 0.44672
                  CHANNELS 6 Xposition Yposition Zposition Zrotation Xrotation Yrotation
                  JOINT rRing3
                  {
                    OFFSET -0.710288 -0.970167 0.4032
                    CHANNELS 6 Xposition Yposition Zposition Zrotation Xrotation Yrotation
                    End Site
                    {
                      OFFSET -0.403228 -0.950952 0.378354
                    }
                  }
                }
              }
              JOINT rPinky1
              {
                OFFSET -3.42483 -0.278904 -0.240415
                CHANNELS 6 Xposition Yposition Zposition Zrotation Xrotation Yrotation
                JOINT rPinky2
                {
                  OFFSET -1.05787 -0.635999 0.156459
                  CHANNELS 6 Xposition Yposition Zposition Zrotation Xrotation Yrotation
                  JOINT rPinky3
                  {
                    OFFSET -0.42815 -0.754232 0.287187
                    CHANNELS 6 Xposition Yposition Zposition Zrotation Xrotation Yrotation
                    End Site
                    {
                      OFFSET -0.235717 -0.725605 0.279416
                    }
                  }
                }
              }
            }
          }
        }
      }
      JOINT lCollar
      {
        OFFSET 1.4963 7.5744 -1.52136
        CHANNELS 6 Xposition Yposition Zposition Zrotation Xrotation Yrotation
        JOINT lShldr
        {
          OFFSET 5.47506 -0.905672 0.485692
          CHANNELS 6 Xposition Yposition Zposition Zrotation Xrotation Yrotation
          JOINT lForeArm
          {
            OFFSET 11.3069 -0.201091 0.618544
            CHANNELS 6 Xposition Yposition Zposition Zrotation Xrotation Yrotation
            JOINT lHand
            {
              OFFSET 9.61414 -0.254739 3.48553
              CHANNELS 6 Xposition Yposition Zposition Zrotation Xrotation Yrotation
              JOINT lThumb1
              {
                OFFSET -0.176263 -0.07068 1.26622
                CHANNELS 6 Xposition Yposition Zposition Zrotation Xrotation Yrotation
                JOINT lThumb2
                {
                  OFFSET 1.04683 -0.546484 1.82182
                  CHANNELS 6 Xposition Yposition Zposition Zrotation Xrotation Yrotation
                  JOINT lThumb3
                  {
                    OFFSET 0.993472 -0.621916 0.655506
                    CHANNELS 6 Xposition Yposition Zposition Zrotation Xrotation Yrotation
                    End Site
                    {
                      OFFSET 0.996134 -0.66263 0.644615
                    }
                  }
                }
              }
              JOINT lIndex1
              {
                OFFSET 2.64253 0.566363 2.4162
                CHANNELS 6 Xposition Yposition Zposition Zrotation Xrotation Yrotation
                JOINT lIndex2
                {
                  OFFSET 1.39394 -0.635138 0.899356
                  CHANNELS 6 Xposition Yposition Zposition Zrotation Xrotation Yrotation
                  JOINT lIndex3
                  {
                    OFFSET 0.622395 -0.856016 0.402182
                    CHANNELS 6 Xposition Yposition Zposition Zrotation Xrotation Yrotation
                    End Site
                    {
                      OFFSET 0.472476 -0.801802 0.34216
                    }
                  }
                }
              }
              JOINT lMid1
              {
                OFFSET 3.20814 0.514427 1.52547
                CHANNELS 6 Xposition Yposition Zposition Zrotation Xrotation Yrotation
                JOINT lMid2
                {
                  OFFSET 1.56545 -0.497974 0.68919
                  CHANNELS 6 Xposition Yposition Zposition Zrotation Xrotation Yrotation
                  JOINT lMid3
                  {
                    OFFSET 0.679943 -1.17582 0.444246
                    CHANNELS 6 Xposition Yposition Zposition Zrotation Xrotation Yrotation
                    End Site
                    {
                      OFFSET 0.343874 -0.941341 0.267611
                    }
                  }
                }
              }
              JOINT lRing1
              {
                OFFSET 3.47877 0.200518 0.597719
                CHANNELS 6 Xposition Yposition Zposition Zrotation Xrotation Yrotation
                JOINT lRing2
                {
                  OFFSET 1.28208 -0.53155 0.44672
                  CHANNELS 6 Xposition Yposition Zposition Zrotation Xrotation Yrotation
                  JOINT lRing3
                  {
                    OFFSET 0.710288 -0.970167 0.4032
                    CHANNELS 6 Xposition Yposition Zposition Zrotation Xrotation Yrotation
                    End Site
                    {
                      OFFSET 0.403228 -0.950952 0.378354
                    }
                  }
                }
              }
              JOINT lPinky1
              {
                OFFSET 3.42483 -0.278904 -0.240415
                CHANNELS 6 Xposition Yposition Zposition Zrotation Xrotation Yrotation
                JOINT lPinky2
                {
                  OFFSET 1.05787 -0.635999 0.156459
                  CHANNELS 6 Xposition Yposition Zposition Zrotation Xrotation Yrotation
                  JOINT lPinky3
                  {
                    OFFSET 0.42815 -0.754232 0.287187
                    CHANNELS 6 Xposition Yposition Zposition Zrotation Xrotation Yrotation
                    End Site
                    {
                      OFFSET 0.235717 -0.725605 0.279416
                    }
                  }
                }
              }
            }
          }
        }
      }
    }
  }
  JOINT rThigh
  {
    OFFSET -4.17848 -1.02486 0.046356
    CHANNELS 6 Xposition Yposition Zposition Zrotation Xrotation Yrotation
    JOINT rShin
    {
      OFFSET 1.27155 -17.465 -0.237699
      CHANNELS 6 Xposition Yposition Zposition Zrotation Xrotation Yrotation
      JOINT rFoot
      {
        OFFSET 0.529163 -17.3815 -1.19582
        CHANNELS 6 Xposition Yposition Zposition Zrotation Xrotation Yrotation
        JOINT rToe
        {
          OFFSET -0.711591 -4.4863 4.0596
          CHANNELS 6 Xposition Yposition Zposition Zrotation Xrotation Yrotation
          End Site
          {
            OFFSET -0.869915 -1.10655 1.99006
          }
        }
      }
    }
  }
  JOINT lThigh
  {
    OFFSET 4.17848 -1.02486 0.046356
    CHANNELS 6 Xposition Yposition Zposition Zrotation Xrotation Yrotation
    JOINT lShin
    {
      OFFSET -1.27155 -17.465 -0.237699
      CHANNELS 6 Xposition Yposition Zposition Zrotation Xrotation Yrotation
      JOINT lFoot
      {
        OFFSET -0.529163 -17.3815 -1.19582
        CHANNELS 6 Xposition Yposition Zposition Zrotation Xrotation Yrotation
        JOINT lToe
        {
          OFFSET 0.711591 -4.4863 4.0596
          CHANNELS 6 Xposition Yposition Zposition Zrotation Xrotation Yrotation
          End Site
          {
            OFFSET 0.869915 -1.10655 1.99006
          }
        }
      }
    }
  }
}
MOTION
Frames:	4
Frame Time:	0.0333333
-32.5295 32.3989 -3.01267 -10.0535 -13.3581 108.715 -1.77636e-015 5.99393 0.287273 5.90013 -5.36634 -4.12793 -1.77636e-015 6.65865 -0.856112 11.4764 -11.1179 -7.73156 0 8.65624 -1.42685 0.0478275 9.37121 -2.64005 0 3.80999 -0.190247 4.74141 -3.45441 4.62003 -1.4963 7.5744 -1.52136 -4.50201 0.0804093 -4.77999 -5.47506 -0.905672 0.485692 49.0694 -7.15834 86.2067 -11.3069 -0.201091 0.618544 -2.99294 -17.7569 38.6354 -9.61414 -0.254739 3.48553 10.9601 -40.731 8.18936 0.176263 -0.07068 1.26622 -15.6871 50.412 18.5117 -1.04683 -0.546484 1.82182 -0.515915 0.557666 -1.56017 -0.993472 -0.621916 0.655506 -2.72966 3.35527 -8.82945 -2.64253 0.566363 2.4162 -23.6212 5.47096 -14.5209 -1.39394 -0.635138 0.899356 39.8962 7.70396 -8.81747 -0.622395 -0.856016 0.402182 39.2013 7.6295 -8.62654 -3.20814 0.514427 1.52547 -0.840472 5.94959 -9.82428 -1.56545 -0.497974 0.68919 52.7411 10.5331 -13.0893 -0.679943 -1.17582 0.444246 44.481 9.78099 -10.5178 -3.47877 0.200518 0.597719 16.3707 -0.644934 -5.84619 -1.28208 -0.53155 0.44672 37.8364 9.71789 -10.3215 -0.710288 -0.970167 0.4032 39.1355 9.911 -10.7659 -3.42483 -0.278904 -0.240415 24.5435 -1.90432 -2.26387 -1.05787 -0.635999 0.156459 31.0686 9.47886 -7.89263 -0.42815 -0.754232 0.287187 30.9985 9.46352 -7.86993 1.4963 7.5744 -1.52136 22.847 -2.25141 -23.7631 5.47506 -0.905672 0.485692 -59.394 0.875001 -73.9591 11.3069 -0.201091 0.618544 -0.532003 -19.35 -5.04696 9.61414 -0.254739 3.48553 48.3787 -70.5378 26.9483 -0.176263 -0.07068 1.26622 0.662291 1.56449 4.64419 1.04683 -0.546484 1.82182 -2.81181 -0.704027 -4.97177 0.993472 -0.621916 0.655506 0.887885 0.277178 1.58715 2.64253 0.566363 2.4162 -2.33808 3.59219 4.59848 1.39394 -0.635138 0.899356 0.738142 -0.249285 -0.293712 0.622395 -0.856016 0.402182 -0.531494 0.176964 0.21313 3.20814 0.514427 1.52547 1.16534 1.98714 0.288833 1.56545 -0.497974 0.68919 -1.85567 0.691922 0.75648 0.679943 -1.17582 0.444246 1.13274 -0.436014 -0.452498 3.47877 0.200518 0.597719 1.52286 -1.09793 -1.01369 1.28208 -0.53155 0.44672 -1.61175 0.66428 0.743338 0.710288 -0.970167 0.4032 1.30296 -0.554818 -0.589891 3.42483 -0.278904 -0.240415 2.4151 -0.257092 0.565196 1.05787 -0.635999 0.156459 -0.0850001 0.0385736 0.0378584 0.42815 -0.754232 0.287187 1.141 -0.52361 -0.505412 -4.17848 -1.02486 0.046356 -56.7363 -30.6477 -49.1522 1.27155 -17.465 -0.237699 52.1742 73.5535 -43.995 0.529163 -17.3815 -1.19582 24.6186 -22.1944 15.6025 -0.711591 -4.4863 4.0596 -1.25596 -9.25463 0.146989 4.17848 -1.02486 0.046356 80.8087 -67.9955 72.2727 -1.27155 -17.465 -0.237699 80.293 86.8322 -83.3818 -0.529163 -17.3815 -1.19582 -4.68515 -20.7206 -16.2975 0.711591 -4.4863 4.0596 1.18293 -9.25171 0.562893 
-32.8323 32.2197 -4.69432 -12.0237 -8.42363 108.105 -3.55271e-015 5.99393 0.287273 4.87882 -5.57236 -3.92434 0 6.65865 -0.856112 9.43185 -11.4479 -7.41122 0 8.65624 -1.42685 0.131598 8.90267 -1.23092 -1.77636e-015 3.80999 -0.190247 0.88092 -3.81271 4.46635 -1.4963 7.5744 -1.52136 -5.199 0.0482099 -3.27282 -5.47506 -0.905672 0.485692 49.1094 -8.21595 86.0533 -11.3069 -0.201091 0.618544 -1.74134 -19.4693 39.9613 -9.61414 -0.254739 3.48553 10.8429 -37.8613 6.25665 0.176263 -0.07068 1.26622 -15.6872 50.4121 18.5117 -1.04683 -0.546484 1.82182 -0.515908 0.557672 -1.56019 -0.993472 -0.621916 0.655506 -2.72965 3.35526 -8.82947 -2.64253 0.566363 2.4162 -23.6212 5.47097 -14.5209 -1.39394 -0.635138 0.899356 39.8962 7.70397 -8.81748 -0.622395 -0.856016 0.402182 39.2013 7.62952 -8.62654 -3.20814 0.514427 1.52547 -0.840476 5.94958 -9.82429 -1.56545 -0.497974 0.68919 52.7411 10.5331 -13.0893 -0.679943 -1.17582 0.444246 44.481 9.781 -10.5178 -3.47877 0.200518 0.597719 16.3707 -0.644886 -5.84621 -1.28208 -0.53155 0.44672 37.8364 9.71775 -10.3215 -0.710288 -0.970167 0.4032 39.1354 9.911 -10.7659 -3.42483 -0.278904 -0.240415 24.5434 -1.90429 -2.26391 -1.05787 -0.635999 0.156459 31.0686 9.47885 -7.89262 -0.42815 -0.754232 0.287187 30.9985 9.46354 -7.86993 1.4963 7.5744 -1.52136 23.7954 -2.24047 -23.5435 5.47506 -0.905672 0.485692 -60.1786 4.12606 -74.5253 11.3069 -0.201091 0.618544 0.837273 -17.135 -5.91454 9.61414 -0.254739 3.48553 47.0536 -73.6989 32.4484 -0.176263 -0.07068 1.26622 1.16291 1.84589 5.88292 1.04683 -0.546484 1.82182 -3.04595 -0.751069 -5.38267 0.993472 -0.621916 0.655506 1.25765 0.400596 2.25097 2.64253 0.566363 2.4162 -3.67952 4.39044 6.02597 1.39394 -0.635138 0.899356 -0.255313 0.0853509 0.102319 0.622395 -0.856016 0.402182 -1.75366 0.575342 0.708566 3.20814 0.514427 1.52547 0.0806354 2.59806 0.773985 1.56545 -0.497974 0.68919 -3.17648 1.16735 1.30604 0.679943 -1.17582 0.444246 0.0684212 -0.0260085 -0.0276676 3.47877 0.200518 0.597719 0.529278 -0.706633 -0.59116 1.28208 -0.53155 0.44672 -2.88004 1.16973 1.33834 0.710288 -0.970167 0.4032 0.286886 -0.120772 -0.130705 3.42483 -0.278904 -0.240415 0.994365 -0.172992 0.388401 1.05787 -0.635999 0.156459 -1.21262 0.543161 0.546128 0.42815 -0.754232 0.287187 0.119393 -0.0542198 -0.0531937 -4.17848 -1.02486 0.046356 -65.1516 -29.3842 -49.4929 1.27155 -17.465 -0.237699 47.1259 72.5046 -38.9794 0.529163 -17.3815 -1.19582 27.3011 -18.516 16.2991 -0.711591 -4.4863 4.0596 -1.29902 -9.57126 0.148444 4.17848 -1.02486 0.046356 69.4947 -69.8793 69.4713 -1.27155 -17.465 -0.237699 98.9241 86.7522 -101.627 -0.529163 -17.3815 -1.19582 -1.00404 -23.2717 -14.1376 0.711591 -4.4863 4.0596 1.05749 -8.31227 0.496492 
-33.0513 32.3015 -6.36141 -13.9685 -3.2448 106.8 0 5.99393 0.287273 3.83981 -5.72469 -3.50665 0 6.65865 -0.856112 7.37611 -11.6626 -6.67 0 8.65624 -1.42685 0.211482 8.59156 0.348779 0 3.80999 -0.190247 -3.12082 -4.22712 4.5366 -1.4963 7.5744 -1.52136 -5.70575 0.0204218 -1.8904 -5.47506 -0.905672 0.485692 49.1437 -8.71075 85.7994 -11.3069 -0.201091 0.618544 -0.523589 -20.7352 41.8108 -9.61414 -0.254739 3.48553 10.612 -35.2186 4.39149 0.176263 -0.07068 1.26622 -15.6872 50.4122 18.5117 -1.04683 -0.546484 1.82182 -0.515932 0.557667 -1.56017 -0.993472 -0.621916 0.655506 -2.72966 3.35527 -8.82946 -2.64253 0.566363 2.4162 -23.6212 5.47101 -14.5209 -1.39394 -0.635138 0.899356 39.8962 7.70401 -8.81749 -0.622395 -0.856016 0.402182 39.2013 7.62952 -8.62654 -3.20814 0.514427 1.52547 -0.840486 5.94961 -9.82428 -1.56545 -0.497974 0.68919 52.7411 10.5331 -13.0893 -0.679943 -1.17582 0.444246 44.481 9.78104 -10.5178 -3.47877 0.200518 0.597719 16.3707 -0.644832 -5.84621 -1.28208 -0.53155 0.44672 37.8364 9.71775 -10.3215 -0.710288 -0.970167 0.4032 39.1355 9.91101 -10.7659 -3.42483 -0.278904 -0.240415 24.5434 -1.90422 -2.26392 -1.05787 -0.635999 0.156459 31.0686 9.47889 -7.89262 -0.42815 -0.754232 0.287187 30.9985 9.46352 -7.86991 1.4963 7.5744 -1.52136 24.1033 -2.22558 -23.3346 5.47506 -0.905672 0.485692 -61.0416 6.86882 -73.9165 11.3069 -0.201091 0.618544 1.84569 -15.2929 -6.67381 9.61414 -0.254739 3.48553 33.1704 -73.2656 27.43 -0.176263 -0.07068 1.26622 1.60967 2.10734 7.00233 1.04683 -0.546484 1.82182 -3.25796 -0.792091 -5.75455 0.993472 -0.621916 0.655506 1.59082 0.51587 2.85067 2.64253 0.566363 2.4162 -4.90955 5.106 7.32516 1.39394 -0.635138 0.899356 -1.15583 0.381967 0.465492 0.622395 -0.856016 0.402182 -2.86202 0.926529 1.16389 3.20814 0.514427 1.52547 -0.906355 3.14374 1.21952 1.56545 -0.497974 0.68919 -4.37515 1.58627 1.81247 0.679943 -1.17582 0.444246 -0.896759 0.337925 0.3631 3.47877 0.200518 0.597719 -0.371615 -0.359476 -0.202771 1.28208 -0.53155 0.44672 -4.03181 1.61544 1.8861 0.710288 -0.970167 0.4032 -0.635103 0.264762 0.291098 3.42483 -0.278904 -0.240415 -0.292181 -0.104981 0.238776 1.05787 -0.635999 0.156459 -2.23644 0.990782 1.01438 0.42815 -0.754232 0.287187 -0.817544 0.340631 0.360015 -4.17848 -1.02486 0.046356 -72.0917 -29.1104 -48.5494 1.27155 -17.465 -0.237699 38.8787 70.1144 -30.8504 0.529163 -17.3815 -1.19582 29.8544 -14.7985 15.2681 -0.711591 -4.4863 4.0596 -1.30657 -9.6268 0.14865 4.17848 -1.02486 0.046356 55.1824 -70.2249 63.9866 -1.27155 -17.465 -0.237699 88.808 86.7656 -91.0113 -0.529163 -17.3815 -1.19582 2.58513 -25.3732 -11.8476 0.711591 -4.4863 4.0596 1.00717 -7.93256 0.47014 
-33.1143 32.6567 -7.96915 -15.9953 2.11022 105.003 0 5.99393 0.287273 2.77438 -5.98969 -3.00216 -3.55271e-015 6.65865 -0.856112 5.272 -12.1108 -5.75609 0 8.65624 -1.42685 0.30236 8.49109 2.38741 -3.55271e-015 3.80999 -0.190247 -7.11446 -4.31876 4.31107 -1.4963 7.5744 -1.52136 -5.781 -0.00485028 -0.468657 -5.47506 -0.905672 0.485692 49.5935 -8.36788 85.4234 -11.3069 -0.201091 0.618544 1.38778 -21.4992 44.2248 -9.61414 -0.254739 3.48553 10.1004 -31.7853 2.5984 0.176263 -0.07068 1.26622 -15.687 50.412 18.5116 -1.04683 -0.546484 1.82182 -0.515934 0.557667 -1.56015 -0.993472 -0.621916 0.655506 -2.72966 3.35528 -8.82945 -2.64253 0.566363 2.4162 -23.6212 5.4711 -14.5208 -1.39394 -0.635138 0.899356 39.8961 7.70407 -8.81753 -0.622395 -0.856016 0.402182 39.2013 7.62954 -8.62654 -3.20814 0.514427 1.52547 -0.840479 5.94962 -9.82429 -1.56545 -0.497974 0.68919 52.7411 10.5332 -13.0893 -0.679943 -1.17582 0.444246 44.481 9.78106 -10.5178 -3.47877 0.200518 0.597719 16.3707 -0.644957 -5.84619 -1.28208 -0.53155 0.44672 37.8364 9.71776 -10.3215 -0.710288 -0.970167 0.4032 39.1355 9.91102 -10.7659 -3.42483 -0.278904 -0.240415 24.5435 -1.90434 -2.26387 -1.05787 -0.635999 0.156459 31.0685 9.4789 -7.89261 -0.42815 -0.754232 0.287187 30.9985 9.46351 -7.8699 1.4963 7.5744 -1.52136 24.3128 -2.16227 -22.554 5.47506 -0.905672 0.485692 -62.4079 10.0416 -72.08 11.3069 -0.201091 0.618544 2.9094 -13.4534 -8.20007 9.61414 -0.254739 3.48553 14.8258 -75.0304 18.7672 -0.176263 -0.07068 1.26622 1.99424 2.34044 7.97635 1.04683 -0.546484 1.82182 -3.44288 -0.826794 -6.07853 0.993472 -0.621916 0.655506 1.87997 0.619118 3.37237 2.64253 0.566363 2.4162 -5.99407 5.72375 8.46304 1.39394 -0.635138 0.899356 -1.94156 0.635699 0.785508 0.622395 -0.856016 0.402182 -3.82959 1.2251 1.56594 3.20814 0.514427 1.52547 -1.77063 3.61344 1.6128 1.56545 -0.497974 0.68919 -5.42264 1.94691 2.26442 0.679943 -1.17582 0.444246 -1.73932 0.649485 0.708314 3.47877 0.200518 0.597719 -1.15802 -0.06245 0.14031 1.28208 -0.53155 0.44672 -5.03849 1.99451 2.37043 0.710288 -0.970167 0.4032 -1.44034 0.59486 0.663553 3.42483 -0.278904 -0.240415 -1.41382 -0.052151 0.116297 1.05787 -0.635999 0.156459 -3.13111 1.37373 1.42868 0.42815 -0.754232 0.287187 -1.61763 0.721424 0.730969 -4.17848 -1.02486 0.046356 -77.4697 -29.5481 -46.6775 1.27155 -17.465 -0.237699 29.5846 65.9511 -21.9092 0.529163 -17.3815 -1.19582 32.4497 -11.2859 13.3628 -0.711591 -4.4863 4.0596 -1.34805 -9.93174 0.149839 4.17848 -1.02486 0.046356 40.366 -68.9441 58.1902 -1.27155 -17.465 -0.237699 54.2312 86.1032 -56.0116 -0.529163 -17.3815 -1.19582 5.85411 -27.0393 -10.0519 0.711591 -4.4863 4.0596 1.02049 -8.03326 0.477066 
